<?xml version="1.0" encoding="utf-8"?>
<!-- Generator: Adobe Illustrator 14.0.0, SVG Export Plug-In . SVG Version: 6.00 Build 43363)  -->
<!DOCTYPE svg PUBLIC "-//W3C//DTD SVG 1.1//EN" "http://www.w3.org/Graphics/SVG/1.1/DTD/svg11.dtd">
<svg version="1.1" xmlns="http://www.w3.org/2000/svg" xmlns:xlink="http://www.w3.org/1999/xlink" x="0px" y="0px" width="1024px"
	 height="1024px" viewBox="0 0 1024 1024" enable-background="new 0 0 1024 1024" xml:space="preserve">
<g id="iOS">
	<g>
		<g>
			<path fill="#000" d="M330.638,611.815c-0.81,0.188,8.154-81.148,53.291-204.131c21.947-61.518,51.099-133.636,87.015-212.108
				c8.99-19.624,18.372-39.628,28.304-60.003l18.428-37.856l28.197,55.79c5.285,10.26,10.564,20.638,15.813,31.147
				c21.02,42.019,41.83,85.997,61.896,131.667c39.647,91.52,74.326,180.515,92.204,267.165l2.729,15.57
				c0,0-17.407,17.946-22.562,23.277c-7.505,7.424-15.812,15.05-25.004,21.757c-18.546,13.735-42.582,20.881-63.761,19.919
				c-21.246-0.028-42.828-7.148-58.541-19.101c-15.949-11.665-27.105-25.379-37.972-37.04
				c-39.772-50.874-100.896-48.5-131.455-33.407c-31.395,16.81-44.066,34.355-44.627,33.306c0.859,0.886,10.704-17.631,41.83-38.538
				c15.947-9.87,39.286-16.33,66.249-14.777c27.389,0.231,58.308,16.325,81.481,40.051c23.566,23.193,47.941,46.652,82.855,43.558
				c17.138-0.479,32.555-6.214,46.397-17.261c6.967-5.666,13.669-12.316,20.7-19.952c3.19-3.438,10.302-10.881,10.302-10.881
				s-56.421-168.142-95.588-258.389c-19.829-45.132-39.911-88.952-59.805-131.029c-3.951-8.375-11.855-24.899-11.855-24.899
				s-7.665,14.793-17.375,33.857c-38.824,76.308-72.068,145.945-98.22,205.193C348.106,532.863,329.883,611.675,330.638,611.815z"/>
			<path fill="#000" d="M713.652,690.814c-0.38,4.531-0.941,9.067-1.569,13.612c-1.175,9.105-2.851,18.228-4.776,27.376
				c-3.92,18.28-9.566,36.535-16.881,54.449c-27.782,71.15-89.787,132.099-161.798,138.758
				c-34.845,3.438-68.416-4.711-94.841-19.489c-26.469-15.006-46.309-35.085-61.033-55.024
				c-29.343-40.417-40.237-79.257-45.889-105.374c-5.379-26.442-5.475-41.326-5.882-41.259c2.182-2.013,6.256,63.548,66.482,134.641
				c29.523,34.142,80.141,64.274,136.965,54.753c56.364-8.391,105.837-58.352,130.89-121.446
				c5.252-12.883,13.159-39.308,13.159-39.308s-19.2,20.534-57.057,22.484c-35.438,3.927-71.969-9.778-93.145-31.808
				c-21.847-20.89-36.022-41.781-54.347-53.445c-37.081-23.078-79.955-14.938-100.582-1.213
				c-22.082,14.047-32.066,25.829-32.385,25.263c0.513,0.421,8.085-12.472,28.995-30.128c20.301-17.104,64.85-33.691,113.547-10.311
				c23.598,12.183,41.56,34.128,61.696,50.159c19.743,16.943,44.904,23.612,72.367,19.685c27.127-3.553,61.298-16.529,86.522-42.374
				l22.799-18.93L713.652,690.814z"/>
		</g>
		<g>
			<path fill="#000" d="M514.527,960.508c-247.444,0-448.755-201.31-448.755-448.753C65.772,264.311,267.083,63,514.527,63
				C761.971,63,963.28,264.311,963.28,511.755C963.28,759.198,761.971,960.508,514.527,960.508L514.527,960.508z M514.527,97.665
				c-228.331,0-414.091,185.76-414.091,414.09c0,228.33,185.76,414.089,414.091,414.089c228.331,0,414.09-185.759,414.09-414.089
				C928.617,283.424,742.858,97.665,514.527,97.665L514.527,97.665z"/>
		</g>
	</g>
</g>
</svg>
