<svg xmlns="http://www.w3.org/2000/svg" xmlns:xlink="http://www.w3.org/1999/xlink" version="1.1" id="Layer_1" x="0px" y="0px" width="89px" height="89px" viewBox="0 0 89 89" enable-background="new 0 0 89 89" xml:space="preserve">
<g>
	<path d="M72.555,10.766H9.904c-2.268,0-4.17,1.701-4.731,4.011h72.112C76.724,12.467,74.822,10.766,72.555,10.766z" fill="#FFF" />
	<path d="M9.904,42.146h62.651H85l-7.543-6.165V18.084H5v18.647C5,39.722,7.195,42.146,9.904,42.146z" fill="#FFF" />
	<path d="M80.135,46.856H17.961c-2.407,0-4.4,1.944-4.792,4.498h71.756C84.534,48.801,82.541,46.856,80.135,46.856z" fill="#FFF" />
	<path d="M13.096,72.289L5.82,78.234h12.125c0.005,0,0.01,0,0.016,0h62.173c2.687,0,4.865-2.423,4.865-5.413V54.663H13.096V72.289z" fill="#FFF" />
</g>
</svg>