<svg xmlns="http://www.w3.org/2000/svg" xmlns:xlink="http://www.w3.org/1999/xlink" version="1.1" id="Your_Icon" x="0px" y="0px" width="100px" height="100px" viewBox="0 0 100 100" enable-background="new 0 0 100 100" xml:space="preserve">
<path fill="#FFF" d="M49.317,64.832L68.503,45.55c1.784-1.786,1.784-4.678,0.002-6.464c-1.787-1.784-4.678-1.783-6.462,0L46.088,55.138  L35.61,44.662c-1.783-1.784-4.679-1.784-6.462,0c-1.785,1.785-1.785,4.678,0,6.462l13.706,13.707  c0.893,0.893,2.063,1.339,3.234,1.339C47.256,66.17,48.426,65.724,49.317,64.832z"/>
<path fill="#FFF" d="M47.155,14.719c-23.457,0-42.54,18.537-42.54,41.994C4.615,65.652,7.48,75,12.637,81H5.114C2.565,81,0.5,83.451,0.5,86  s2.065,5,4.614,5H29V66.48c0-2.548-1.951-4.613-4.5-4.613S20,63.933,20,66.48v9.202c-5-5.353-5.413-11.705-5.413-18.423  c0-17.759,14.629-32.206,32.387-32.206c17.76,0,32.294,14.447,32.294,32.206S64.87,89.466,47.109,89.466  c-2.853,0-5.143,2.313-5.143,5.166c0,2.855,2.322,5.168,5.177,5.168c23.459,0,42.546-19.083,42.546-42.54  C89.689,33.802,70.613,14.719,47.155,14.719z"/>
<path fill="#FFF" d="M40.414,11h13.483c3.156,0,5.712-2.345,5.712-5.5c0-3.154-2.556-5.5-5.712-5.5H40.414c-3.158,0-5.713,2.346-5.713,5.5  C34.701,8.655,37.256,11,40.414,11z"/>
</svg>