<svg xmlns="http://www.w3.org/2000/svg" xmlns:xlink="http://www.w3.org/1999/xlink" version="1.1" id="Your_Icon" x="0px" y="0px" width="100px" height="100px" viewBox="0 0 100 100" enable-background="new 0 0 100 100" xml:space="preserve">
<g>
	<path fill="#FFF" d="M90.992,29.726L80.658,19.113c-0.005-0.003-0.009-0.004-0.014-0.009c-0.196-0.2-0.432-0.359-0.693-0.474   c-0.035-0.017-0.072-0.022-0.109-0.036c-0.039-0.015-0.083-0.012-0.124-0.026c-0.212-0.065-0.426-0.127-0.648-0.128   c-0.004,0-0.009-0.003-0.013-0.003c-0.011,0-0.02,0.006-0.03,0.006c-0.228-0.001-0.45,0.057-0.668,0.125   c-0.042,0.013-0.083,0.01-0.122,0.025c-0.297,0.112-0.581,0.275-0.816,0.519L67.086,29.726c-0.859,0.885-0.842,2.299,0.044,3.159   c0.432,0.423,0.995,0.634,1.558,0.634c0.58,0,1.252-0.226,1.69-0.675L77,26.133v39.226c0,1.235,0.765,2.234,2,2.234   c1.234,0,2-0.999,2-2.234v-39.19l6.644,6.675c0.438,0.449,1.095,0.675,1.675,0.675c0.562,0,1.162-0.211,1.594-0.634   C91.798,32.025,91.852,30.611,90.992,29.726z"/>
	<path fill="#FFF" d="M29.597,66.595L23,73.267V34.078c0-1.234-0.766-2.234-2-2.234s-2,1-2,2.234v39.226l-6.67-6.709   c-0.86-0.887-2.344-0.903-3.228-0.044c-0.884,0.861-0.936,2.275-0.075,3.159l10.317,10.613c0.438,0.45,1.01,0.677,1.592,0.677   c0.005,0,0.008-0.004,0.013-0.004c0.006,0,0.01,0.004,0.015,0.004c0.293,0,0.586-0.059,0.861-0.175   c0.275-0.113,0.52-0.283,0.726-0.493c0.003-0.004,0.009-0.004,0.012-0.009L32.898,69.71c0.86-0.884,0.793-2.298-0.093-3.159   C31.924,65.691,30.458,65.708,29.597,66.595z"/>
	<path fill="#FFF" d="M67.885,47h-35.75c-1.235,0-2.234,1.265-2.234,2.5c0,1.234,1,2.5,2.234,2.5h35.75c1.234,0,2.234-1.266,2.234-2.5   C70.119,48.265,69.119,47,67.885,47z"/>
	<path fill="#FFF" d="M67.885,37h-35.75c-1.235,0-2.234,1.265-2.234,2.5c0,1.234,1,2.5,2.234,2.5h35.75c1.234,0,2.234-1.266,2.234-2.5   C70.119,38.265,69.119,37,67.885,37z"/>
	<path fill="#FFF" d="M67.885,57h-35.75c-1.235,0-2.234,1.265-2.234,2.5c0,1.234,1,2.5,2.234,2.5h35.75c1.234,0,2.234-1.266,2.234-2.5   C70.119,58.265,69.119,57,67.885,57z"/>
</g>
</svg>