<?xml version="1.0" encoding="utf-8"?>
<!DOCTYPE svg PUBLIC "-//W3C//DTD SVG 1.1//EN" "http://www.w3.org/Graphics/SVG/1.1/DTD/svg11.dtd">
<svg version="1.1" xmlns="http://www.w3.org/2000/svg" xmlns:xlink="http://www.w3.org/1999/xlink">
	<defs>
		<symbol id="settings" viewBox="0 0 115 115">
			<path transform="translate(0, 10)" d="M95.784,59.057c1.867,0,3.604-1.514,3.858-3.364c0,0,0.357-2.6,0.357-5.692c0-3.092-0.357-5.692-0.357-5.692  c-0.255-1.851-1.991-3.364-3.858-3.364h-9.648c-1.868,0-3.808-1.191-4.31-2.646s-1.193-6.123,0.128-7.443l6.82-6.82  c1.32-1.321,1.422-3.575,0.226-5.01L80.976,11c-1.435-1.197-3.688-1.095-5.01,0.226l-6.82,6.82c-1.32,1.321-3.521,1.853-4.888,1.183  c-1.368-0.67-5.201-3.496-5.201-5.364V4.217c0-1.868-1.514-3.604-3.364-3.859c0,0-2.6-0.358-5.692-0.358s-5.692,0.358-5.692,0.358  c-1.851,0.254-3.365,1.991-3.365,3.859v9.648c0,1.868-1.19,3.807-2.646,4.31c-1.456,0.502-6.123,1.193-7.444-0.128l-6.82-6.82  C22.713,9.906,20.459,9.804,19.025,11L11,19.025c-1.197,1.435-1.095,3.689,0.226,5.01l6.819,6.82  c1.321,1.321,1.854,3.521,1.183,4.888s-3.496,5.201-5.364,5.201H4.217c-1.868,0-3.604,1.514-3.859,3.364c0,0-0.358,2.6-0.358,5.692  c0,3.093,0.358,5.692,0.358,5.692c0.254,1.851,1.991,3.364,3.859,3.364h9.648c1.868,0,3.807,1.19,4.309,2.646  c0.502,1.455,1.193,6.122-0.128,7.443l-6.819,6.819c-1.321,1.321-1.423,3.575-0.226,5.01L19.025,89  c1.435,1.196,3.688,1.095,5.009-0.226l6.82-6.82c1.321-1.32,3.521-1.853,4.889-1.183c1.368,0.67,5.201,3.496,5.201,5.364v9.648  c0,1.867,1.514,3.604,3.365,3.858c0,0,2.599,0.357,5.692,0.357s5.692-0.357,5.692-0.357c1.851-0.255,3.364-1.991,3.364-3.858v-9.648  c0-1.868,1.19-3.808,2.646-4.31s6.123-1.192,7.444,0.128l6.819,6.82c1.321,1.32,3.575,1.422,5.01,0.226L89,80.976  c1.196-1.435,1.095-3.688-0.227-5.01l-6.819-6.819c-1.321-1.321-1.854-3.521-1.183-4.889c0.67-1.368,3.496-5.201,5.364-5.201H95.784  z M50,68.302c-10.108,0-18.302-8.193-18.302-18.302c0-10.107,8.194-18.302,18.302-18.302c10.108,0,18.302,8.194,18.302,18.302  C68.302,60.108,60.108,68.302,50,68.302z" />
		</symbol>

		<symbol id="twitter" viewBox="0 0 190 160">
			<g transform="translate(-282.32053,-380)">
				<path d="m 453.82593,412.80619 c -6.3097,2.79897 -13.09189,4.68982 -20.20852,5.54049 7.26413,-4.35454 12.84406,-11.24992 15.47067,-19.46675 -6.79934,4.03295 -14.3293,6.96055 -22.34461,8.53841 -6.41775,-6.83879 -15.56243,-11.111 -25.68298,-11.111 -19.43159,0 -35.18696,15.75365 -35.18696,35.18525 0,2.75781 0.31128,5.44359 0.91155,8.01875 -29.24344,-1.46723 -55.16995,-15.47582 -72.52461,-36.76396 -3.02879,5.19662 -4.76443,11.24048 -4.76443,17.6891 0,12.20777 6.21194,22.97747 15.65332,29.28716 -5.76773,-0.18265 -11.19331,-1.76565 -15.93716,-4.40083 -0.004,0.14663 -0.004,0.29412 -0.004,0.44248 0,17.04767 12.12889,31.26806 28.22555,34.50266 -2.95247,0.80436 -6.06101,1.23398 -9.26989,1.23398 -2.2673,0 -4.47114,-0.22124 -6.62011,-0.63114 4.47801,13.97857 17.47214,24.15143 32.86992,24.43441 -12.04227,9.43796 -27.21366,15.06335 -43.69965,15.06335 -2.84014,0 -5.64082,-0.16722 -8.39349,-0.49223 15.57186,9.98421 34.06703,15.8094 53.93768,15.8094 64.72024,0 100.11301,-53.61524 100.11301,-100.11387 0,-1.52554 -0.0343,-3.04251 -0.10204,-4.55261 6.87394,-4.95995 12.83891,-11.15646 17.55618,-18.21305 z" />
			</g>
		</symbol>

		<symbol id="facebook" viewBox="0 0 290 290">
			<g transform="translate(0, 20)">
				<path d="M248.082,262.307c7.854,0,14.223-6.369,14.223-14.225V18.812
					c0-7.857-6.368-14.224-14.223-14.224H18.812c-7.857,0-14.224,6.367-14.224,14.224v229.27c0,7.855,6.366,14.225,14.224,14.225
					H248.082z"/>
				<path id="facebook_f" fill="#1f95e5" d="M182.409,262.307v-99.803h33.499l5.016-38.895h-38.515V98.777c0-11.261,3.127-18.935,19.275-18.935
					l20.596-0.009V45.045c-3.562-0.474-15.788-1.533-30.012-1.533c-29.695,0-50.025,18.126-50.025,51.413v28.684h-33.585v38.895h33.585
					v99.803H182.409z"/>
			</g>
		</symbol>

		<symbol id="about" viewBox="0 0 100 100">
			<path d="M48.994,8.126c-23.702,0-42.916,19.214-42.916,42.916c0,23.701,19.214,42.915,42.916,42.915  c23.701,0,42.916-19.214,42.916-42.915C91.91,27.34,72.695,8.126,48.994,8.126z M55.261,80.292c-0.033,0.194-0.176,0.351-0.366,0.4  c-1.589,0.418-4.01,0.916-6.516,0.916c-3.783,0-6.568-1.03-8.277-3.063c-1.849-2.198-2.409-5.482-1.665-9.762l3.405-19.033h-5.883  c-0.148,0-0.289-0.065-0.384-0.179c-0.095-0.114-0.134-0.264-0.108-0.409l1.44-8.01c0.043-0.238,0.25-0.412,0.492-0.412h16.65  c0.148,0,0.288,0.065,0.384,0.179c0.095,0.114,0.135,0.263,0.108,0.409L49.5,69.407c-0.238,1.392-0.133,2.333,0.322,2.873  c0.385,0.457,1.091,0.679,2.156,0.679c1.257,0,2.636-0.245,3.881-0.691c0.168-0.061,0.353-0.027,0.49,0.087  c0.136,0.114,0.201,0.292,0.172,0.467L55.261,80.292z M50.539,35.891c-3.998,0-7.25-3.252-7.25-7.25c0-3.997,3.252-7.249,7.25-7.249  c3.997,0,7.249,3.252,7.249,7.249C57.788,32.638,54.536,35.891,50.539,35.891z"/>
		</symbol>

		<symbol id="play" viewBox="0 0 100 100">
			<path d="M50,0.005c-0.432,0-0.858-0.011-1.287,0C21.695,0.689,0,22.821,0,50.002C0,77.615,22.386,100,50,100 s50-22.385,50-49.997C100,22.39,77.614,0.005,50,0.005z M50,90c-22.091,0-40-17.906-40-39.997c0-22.09,17.909-39.998,40-39.998 c22.092,0,40,17.908,40,39.998C90,72.093,72.092,90,50,90z"/>
			<polygon points="35.857,79.41 76.824,50 35.647,20.59 "/>
		</symbol>

		<symbol id="stop" viewBox="0 0 100 100">
			<path d="M50,0.005c-0.432,0-0.858-0.011-1.287,0C21.695,0.689,0,22.821,0,50.002C0,77.615,22.386,100,50,100 s50-22.385,50-49.997C100,22.39,77.614,0.005,50,0.005z M50,90c-22.091,0-40-17.906-40-39.997c0-22.09,17.909-39.998,40-39.998 c22.092,0,40,17.908,40,39.998C90,72.093,72.092,90,50,90z"/>
			<rect x="30" y="30" width="39" height="39"/>
		</symbol>

		<symbol id="mute" viewBox="0 0 100 100">
			<path fill-rule="evenodd" clip-rule="evenodd" d="M70.564,57.797c0.538-0.797,0.988-1.616,1.339-2.445  c0.374-0.885,0.663-1.809,0.855-2.76c0.18-0.892,0.275-1.861,0.275-2.902c0-1.04-0.096-2.009-0.275-2.901  c-0.192-0.951-0.481-1.875-0.855-2.76c-0.351-0.829-0.801-1.648-1.339-2.445c-0.517-0.769-1.116-1.493-1.785-2.162  c-1.332-1.332-2.895-2.4-4.608-3.125c-1.758-0.741-2.582-2.766-1.842-4.523c0.74-1.758,2.766-2.583,4.524-1.843  c2.59,1.096,4.905,2.663,6.829,4.587c0.966,0.965,1.847,2.035,2.626,3.191c0.748,1.109,1.407,2.327,1.961,3.639  c0.549,1.296,0.975,2.663,1.262,4.087c0.286,1.421,0.437,2.846,0.437,4.256c0,1.411-0.15,2.836-0.437,4.258  c-0.287,1.423-0.713,2.79-1.262,4.086c-0.554,1.312-1.213,2.529-1.961,3.638c-0.219,0.325-0.445,0.644-0.68,0.953  c-0.809,1.071-0.966,0.67-1.884-0.249c-1.096-1.096-1.619-1.619-2.714-2.714C70.203,58.833,69.931,58.74,70.564,57.797z"/>
			<path fill-rule="evenodd" clip-rule="evenodd" d="M80.397,67.533c0.736-0.845,1.417-1.73,2.04-2.653  c0.989-1.47,1.829-3.006,2.5-4.591c0.7-1.653,1.239-3.384,1.601-5.173c0.346-1.709,0.526-3.522,0.526-5.427  s-0.181-3.717-0.526-5.425c-0.361-1.789-0.9-3.52-1.601-5.173c-0.671-1.585-1.511-3.122-2.5-4.591  c-0.977-1.446-2.098-2.803-3.344-4.049c-1.246-1.247-2.603-2.368-4.049-3.343c-1.469-0.99-3.007-1.83-4.592-2.501  c-1.758-0.74-2.582-2.766-1.842-4.524s2.767-2.583,4.523-1.842c2.067,0.875,4.003,1.924,5.784,3.125  c1.836,1.238,3.536,2.64,5.079,4.182c1.542,1.543,2.944,3.244,4.182,5.08c1.202,1.78,2.25,3.716,3.124,5.783  c0.874,2.065,1.551,4.24,2.008,6.501C93.763,45.146,94,47.415,94,49.689c0,2.275-0.237,4.545-0.688,6.781  c-0.457,2.261-1.134,4.436-2.008,6.501c-0.874,2.066-1.923,4.001-3.124,5.782c-0.875,1.298-1.832,2.527-2.861,3.682  c-0.813,0.911-0.86,0.651-1.708-0.195c-1.101-1.102-1.9-1.9-3.001-3.001C79.741,68.371,79.604,68.443,80.397,67.533z"/>
			<path fill-rule="evenodd" clip-rule="evenodd" d="M20.096,32.725h-8.13C8.685,32.725,6,35.41,6,38.691v22.484  c0,3.28,2.685,5.966,5.966,5.966h13.441c6.906,5.195,13.81,10.393,20.713,15.591c3.148,2.368,6.793,1.988,6.793-2.12  c0-4.925,0-9.442,0-14.365c0-1.745-0.261-2.222-1.506-3.468c-9.727-9.727-19.453-19.454-29.18-29.181  C21.37,32.739,21.311,32.725,20.096,32.725z"/>
			<path fill-rule="evenodd" clip-rule="evenodd" d="M12.589,12.588L12.589,12.588c2.116-2.115,5.577-2.115,7.692,0  l67.13,67.131c2.116,2.115,2.116,5.576,0,7.691l0,0c-2.115,2.116-5.576,2.116-7.691,0l-67.131-67.13  C10.474,18.165,10.474,14.704,12.589,12.588z"/>
			<path fill-rule="evenodd" clip-rule="evenodd" d="M46.121,17.134c-2.872,2.163-5.744,4.325-8.617,6.487  c-1.585,1.193-0.805,1.707,0.599,3.11c4.504,4.506,9.009,9.011,13.514,13.516c1.004,1.016,1.297,0.896,1.297-0.191v-20.8  C52.914,15.147,49.269,14.766,46.121,17.134z"/>
		</symbol>

		<symbol id="close" viewBox="0 0 100 100">
			<path d="M50,0.005c-0.432,0-0.858-0.011-1.287,0C21.695,0.689,0,22.821,0,50.002C0,77.615,22.386,100,50,100 s50-22.385,50-49.997C100,22.39,77.614,0.005,50,0.005z M50,90c-22.091,0-40-17.906-40-39.997c0-22.09,17.909-39.998,40-39.998 c22.092,0,40,17.908,40,39.998C90,72.093,72.092,90,50,90z"/>
			<line stroke-width="10" x1="30" y1="30" x2="69" y2="69" />
			<line stroke-width="10" x1="69" y1="30" x2="30" y2="69" />
		</symbol>

		<symbol id="user" viewBox="0 0 95 95">
			<g transform="translate(0, -4)">
				<rect x="38.051" y="15.368" width="23.34" height="22.863"/>
				<polygon points="22.186,42.521 22.186,86.448 31.802,86.448 31.819,55.313 36.203,55.314 36.186,86.448 63.271,86.448    63.289,55.117 67.674,55.118 67.655,86.448 77.258,86.448 77.258,42.521  "/>
			</g>
		</symbol>

		<symbol id="pulldown" viewBox="0 0 16 6">
			<polygon points="8.3,5.1 1,1.9 1.6,0.5 8.3,3.5 15,0.5 15.6,1.9 	"/>
		</symbol>

		<symbol id="signal" viewBox="0 0 100 100">
			<path d="M95.667,31.096C70.487,5.915,29.512,5.914,4.332,31.097c-3.046,3.044-3.046,7.982,0,11.027   c1.522,1.522,3.518,2.284,5.514,2.284c1.995,0,3.991-0.762,5.514-2.284c19.1-19.101,50.18-19.101,69.281,0   c3.044,3.045,7.982,3.044,11.028,0C98.714,39.078,98.714,34.141,95.667,31.096z"/>
			<path d="M15.597,50.899c-3.046,3.044-3.046,7.981,0,11.027c3.044,3.044,7.981,3.045,11.027,0   c12.889-12.889,33.861-12.888,46.752,0c1.523,1.522,3.518,2.283,5.514,2.283c1.995,0,3.992-0.761,5.515-2.283   c3.045-3.046,3.045-7.983-0.001-11.028C65.432,31.931,34.566,31.93,15.597,50.899z"/>
			<circle cx="50" cy="72.562" r="15.228"/>
		</symbol>
	</defs>
</svg>