<?xml version="1.0" encoding="utf-8"?>
<!DOCTYPE svg PUBLIC "-//W3C//DTD SVG 1.1//EN" "http://www.w3.org/Graphics/SVG/1.1/DTD/svg11.dtd">
<svg version="1.1" xmlns="http://www.w3.org/2000/svg" xmlns:xlink="http://www.w3.org/1999/xlink">
	<defs>
		<symbol id="settings" viewBox="0 0 115 115">
			<path transform="translate(0, 10)" d="M95.784,59.057c1.867,0,3.604-1.514,3.858-3.364c0,0,0.357-2.6,0.357-5.692c0-3.092-0.357-5.692-0.357-5.692  c-0.255-1.851-1.991-3.364-3.858-3.364h-9.648c-1.868,0-3.808-1.191-4.31-2.646s-1.193-6.123,0.128-7.443l6.82-6.82  c1.32-1.321,1.422-3.575,0.226-5.01L80.976,11c-1.435-1.197-3.688-1.095-5.01,0.226l-6.82,6.82c-1.32,1.321-3.521,1.853-4.888,1.183  c-1.368-0.67-5.201-3.496-5.201-5.364V4.217c0-1.868-1.514-3.604-3.364-3.859c0,0-2.6-0.358-5.692-0.358s-5.692,0.358-5.692,0.358  c-1.851,0.254-3.365,1.991-3.365,3.859v9.648c0,1.868-1.19,3.807-2.646,4.31c-1.456,0.502-6.123,1.193-7.444-0.128l-6.82-6.82  C22.713,9.906,20.459,9.804,19.025,11L11,19.025c-1.197,1.435-1.095,3.689,0.226,5.01l6.819,6.82  c1.321,1.321,1.854,3.521,1.183,4.888s-3.496,5.201-5.364,5.201H4.217c-1.868,0-3.604,1.514-3.859,3.364c0,0-0.358,2.6-0.358,5.692  c0,3.093,0.358,5.692,0.358,5.692c0.254,1.851,1.991,3.364,3.859,3.364h9.648c1.868,0,3.807,1.19,4.309,2.646  c0.502,1.455,1.193,6.122-0.128,7.443l-6.819,6.819c-1.321,1.321-1.423,3.575-0.226,5.01L19.025,89  c1.435,1.196,3.688,1.095,5.009-0.226l6.82-6.82c1.321-1.32,3.521-1.853,4.889-1.183c1.368,0.67,5.201,3.496,5.201,5.364v9.648  c0,1.867,1.514,3.604,3.365,3.858c0,0,2.599,0.357,5.692,0.357s5.692-0.357,5.692-0.357c1.851-0.255,3.364-1.991,3.364-3.858v-9.648  c0-1.868,1.19-3.808,2.646-4.31s6.123-1.192,7.444,0.128l6.819,6.82c1.321,1.32,3.575,1.422,5.01,0.226L89,80.976  c1.196-1.435,1.095-3.688-0.227-5.01l-6.819-6.819c-1.321-1.321-1.854-3.521-1.183-4.889c0.67-1.368,3.496-5.201,5.364-5.201H95.784  z M50,68.302c-10.108,0-18.302-8.193-18.302-18.302c0-10.107,8.194-18.302,18.302-18.302c10.108,0,18.302,8.194,18.302,18.302  C68.302,60.108,60.108,68.302,50,68.302z" />
		</symbol>

		<symbol id="twitter" viewBox="0 0 190 160">
			<g transform="translate(-282.32053,-380)">
				<path d="m 453.82593,412.80619 c -6.3097,2.79897 -13.09189,4.68982 -20.20852,5.54049 7.26413,-4.35454 12.84406,-11.24992 15.47067,-19.46675 -6.79934,4.03295 -14.3293,6.96055 -22.34461,8.53841 -6.41775,-6.83879 -15.56243,-11.111 -25.68298,-11.111 -19.43159,0 -35.18696,15.75365 -35.18696,35.18525 0,2.75781 0.31128,5.44359 0.91155,8.01875 -29.24344,-1.46723 -55.16995,-15.47582 -72.52461,-36.76396 -3.02879,5.19662 -4.76443,11.24048 -4.76443,17.6891 0,12.20777 6.21194,22.97747 15.65332,29.28716 -5.76773,-0.18265 -11.19331,-1.76565 -15.93716,-4.40083 -0.004,0.14663 -0.004,0.29412 -0.004,0.44248 0,17.04767 12.12889,31.26806 28.22555,34.50266 -2.95247,0.80436 -6.06101,1.23398 -9.26989,1.23398 -2.2673,0 -4.47114,-0.22124 -6.62011,-0.63114 4.47801,13.97857 17.47214,24.15143 32.86992,24.43441 -12.04227,9.43796 -27.21366,15.06335 -43.69965,15.06335 -2.84014,0 -5.64082,-0.16722 -8.39349,-0.49223 15.57186,9.98421 34.06703,15.8094 53.93768,15.8094 64.72024,0 100.11301,-53.61524 100.11301,-100.11387 0,-1.52554 -0.0343,-3.04251 -0.10204,-4.55261 6.87394,-4.95995 12.83891,-11.15646 17.55618,-18.21305 z" />
			</g>
		</symbol>

		<symbol id="facebook" viewBox="0 0 290 290">
			<g transform="translate(0, 20)">
				<path d="M248.082,262.307c7.854,0,14.223-6.369,14.223-14.225V18.812
					c0-7.857-6.368-14.224-14.223-14.224H18.812c-7.857,0-14.224,6.367-14.224,14.224v229.27c0,7.855,6.366,14.225,14.224,14.225
					H248.082z"/>
				<path id="facebook_f" fill="#1f95e5" d="M182.409,262.307v-99.803h33.499l5.016-38.895h-38.515V98.777c0-11.261,3.127-18.935,19.275-18.935
					l20.596-0.009V45.045c-3.562-0.474-15.788-1.533-30.012-1.533c-29.695,0-50.025,18.126-50.025,51.413v28.684h-33.585v38.895h33.585
					v99.803H182.409z"/>
			</g>
		</symbol>

		<symbol id="about" viewBox="0 0 100 100">
			<path d="M48.994,8.126c-23.702,0-42.916,19.214-42.916,42.916c0,23.701,19.214,42.915,42.916,42.915  c23.701,0,42.916-19.214,42.916-42.915C91.91,27.34,72.695,8.126,48.994,8.126z M55.261,80.292c-0.033,0.194-0.176,0.351-0.366,0.4  c-1.589,0.418-4.01,0.916-6.516,0.916c-3.783,0-6.568-1.03-8.277-3.063c-1.849-2.198-2.409-5.482-1.665-9.762l3.405-19.033h-5.883  c-0.148,0-0.289-0.065-0.384-0.179c-0.095-0.114-0.134-0.264-0.108-0.409l1.44-8.01c0.043-0.238,0.25-0.412,0.492-0.412h16.65  c0.148,0,0.288,0.065,0.384,0.179c0.095,0.114,0.135,0.263,0.108,0.409L49.5,69.407c-0.238,1.392-0.133,2.333,0.322,2.873  c0.385,0.457,1.091,0.679,2.156,0.679c1.257,0,2.636-0.245,3.881-0.691c0.168-0.061,0.353-0.027,0.49,0.087  c0.136,0.114,0.201,0.292,0.172,0.467L55.261,80.292z M50.539,35.891c-3.998,0-7.25-3.252-7.25-7.25c0-3.997,3.252-7.249,7.25-7.249  c3.997,0,7.249,3.252,7.249,7.249C57.788,32.638,54.536,35.891,50.539,35.891z"/>
		</symbol>

		<symbol id="play" viewBox="0 0 100 100">
			<path d="M50,0.005c-0.432,0-0.858-0.011-1.287,0C21.695,0.689,0,22.821,0,50.002C0,77.615,22.386,100,50,100 s50-22.385,50-49.997C100,22.39,77.614,0.005,50,0.005z M50,90c-22.091,0-40-17.906-40-39.997c0-22.09,17.909-39.998,40-39.998 c22.092,0,40,17.908,40,39.998C90,72.093,72.092,90,50,90z"/>
			<polygon points="35.857,79.41 76.824,50 35.647,20.59 "/>
		</symbol>

		<symbol id="stop" viewBox="0 0 100 100">
			<path d="M50,0.005c-0.432,0-0.858-0.011-1.287,0C21.695,0.689,0,22.821,0,50.002C0,77.615,22.386,100,50,100 s50-22.385,50-49.997C100,22.39,77.614,0.005,50,0.005z M50,90c-22.091,0-40-17.906-40-39.997c0-22.09,17.909-39.998,40-39.998 c22.092,0,40,17.908,40,39.998C90,72.093,72.092,90,50,90z"/>
			<rect x="30" y="30" width="39" height="39"/>
		</symbol>

		<symbol id="mute" viewBox="0 0 100 100">
			<path d="M50,0.005c-0.432,0-0.858-0.011-1.287,0C21.695,0.689,0,22.821,0,50.002C0,77.615,22.386,100,50,100 s50-22.385,50-49.997C100,22.39,77.614,0.005,50,0.005z M50,90c-22.091,0-40-17.906-40-39.997c0-22.09,17.909-39.998,40-39.998 c22.092,0,40,17.908,40,39.998C90,72.093,72.092,90,50,90z"/>
			<rect x="27" y="25" width="20" height="50"/>
			<rect x="53" y="25" width="20" height="50"/>
		</symbol>

		<symbol id="close" viewBox="0 0 100 100">
			<path d="M50,0.005c-0.432,0-0.858-0.011-1.287,0C21.695,0.689,0,22.821,0,50.002C0,77.615,22.386,100,50,100 s50-22.385,50-49.997C100,22.39,77.614,0.005,50,0.005z M50,90c-22.091,0-40-17.906-40-39.997c0-22.09,17.909-39.998,40-39.998 c22.092,0,40,17.908,40,39.998C90,72.093,72.092,90,50,90z"/>
			<line stroke-width="10" x1="30" y1="30" x2="69" y2="69" />
			<line stroke-width="10" x1="69" y1="30" x2="30" y2="69" />
		</symbol>

		<symbol id="user" viewBox="0 0 95 95">
			<g transform="translate(0, -4)">
				<rect x="38.051" y="15.368" width="23.34" height="22.863"/>
				<polygon points="22.186,42.521 22.186,86.448 31.802,86.448 31.819,55.313 36.203,55.314 36.186,86.448 63.271,86.448    63.289,55.117 67.674,55.118 67.655,86.448 77.258,86.448 77.258,42.521  "/>
			</g>
		</symbol>

		<symbol id="pulldown" viewBox="0 0 16 6">
			<polygon points="8.3,5.1 1,1.9 1.6,0.5 8.3,3.5 15,0.5 15.6,1.9 	"/>
		</symbol>

		<symbol id="signal" viewBox="0 0 100 100">
			<path d="M95.667,31.096C70.487,5.915,29.512,5.914,4.332,31.097c-3.046,3.044-3.046,7.982,0,11.027   c1.522,1.522,3.518,2.284,5.514,2.284c1.995,0,3.991-0.762,5.514-2.284c19.1-19.101,50.18-19.101,69.281,0   c3.044,3.045,7.982,3.044,11.028,0C98.714,39.078,98.714,34.141,95.667,31.096z"/>
			<path d="M15.597,50.899c-3.046,3.044-3.046,7.981,0,11.027c3.044,3.044,7.981,3.045,11.027,0   c12.889-12.889,33.861-12.888,46.752,0c1.523,1.522,3.518,2.283,5.514,2.283c1.995,0,3.992-0.761,5.515-2.283   c3.045-3.046,3.045-7.983-0.001-11.028C65.432,31.931,34.566,31.93,15.597,50.899z"/>
			<circle cx="50" cy="72.562" r="15.228"/>
		</symbol>
	</defs>
</svg>