<?xml version="1.0" encoding="UTF-8"?>
<!-- Generator: Adobe Illustrator 19.2.1, SVG Export Plug-In . SVG Version: 6.00 Build 0)  -->
<!DOCTYPE svg PUBLIC "-//W3C//DTD SVG 1.1//EN" "http://www.w3.org/Graphics/SVG/1.1/DTD/svg11.dtd">
<svg version="1.1" id="Laag_1" xmlns="http://www.w3.org/2000/svg" xmlns:xlink="http://www.w3.org/1999/xlink" x="0px" y="0px" viewBox="0 0 230.2 469.7" enable-background="new 0 0 230.2 469.7" xml:space="preserve">
<g>
	<path d="M168.7,366.5c-51.6,0-62.2-56.9-108.5-56.9c-38.1,0-57.8,35.2-57.8,35.2s-0.3,7.4-0.3,12c0,62.3,51.3,112.9,113.6,112.9   c62.3,0,112.8-50.5,112.8-112.8c0-3.9-0.5-16.9-0.5-16.9S205.4,366.5,168.7,366.5z M115.7,447.6c-50.4,0-91.5-40.7-91.5-90.8   c0-1.5,0-3.2,0.1-5c5.1-6.8,17.5-20.1,36-20.1c13,0,21.7,7.6,35.8,21.1c16.6,16,37.3,35.7,72.7,35.7c12.7,0,24.2-2.5,34-6.1   C191.6,420.1,156.8,447.6,115.7,447.6z M59.6,254.5c55.4,0,63.6,56.4,109.4,56.4c38.6,0,61.2-38.1,61.2-38.1S178.4,111.4,114.7,0   c0,0-71.9,113.2-114.7,286.6C0,286.6,22.9,254.5,59.6,254.5z M114.3,45.8c44.2,86.8,80.2,190.1,91.3,223.1   c-7,8.1-20,19.9-36.6,19.9c-12.3,0-20-6.9-33.7-20c-16-15.4-37.8-36.4-75.7-36.4c-8.1,0-15.6,1.2-22.5,3.1   C63.1,149.6,94.5,83.2,114.3,45.8z"/>
</g>
</svg>